<svg xmlns="http://www.w3.org/2000/svg" width="1050" height="556" viewBox="0 0 1050 556">
<rect width="100%" height="100%" fill="#ffffff"/>
<text x="24" y="32" font-family="Segoe UI, Arial, sans-serif" font-size="22" font-weight="700" fill="#111827">OpenGarrison Base Game Weapon DPS</text>
<text x="24" y="56" font-family="Segoe UI, Arial, sans-serif" font-size="12" fill="#4b5563">Only weapon items in stock default class loadouts. Ideal hits, 30 ticks/sec.</text>
<rect x="24" y="68" width="14" height="10" fill="#2563eb"/><text x="44" y="77" font-family="Segoe UI, Arial, sans-serif" font-size="12" fill="#111827">Sustained DPS</text>
<rect x="142" y="68" width="14" height="10" fill="#f59e0b"/><text x="162" y="77" font-family="Segoe UI, Arial, sans-serif" font-size="12" fill="#111827">Burst DPS</text>
<line x1="250.0" x2="250.0" y1="98" y2="502" stroke="#e5e7eb" stroke-width="1"/>
<text x="250.0" y="92" text-anchor="middle" font-family="Segoe UI, Arial, sans-serif" font-size="10" fill="#6b7280">0</text>
<line x1="402.0" x2="402.0" y1="98" y2="502" stroke="#e5e7eb" stroke-width="1"/>
<text x="402.0" y="92" text-anchor="middle" font-family="Segoe UI, Arial, sans-serif" font-size="10" fill="#6b7280">25</text>
<line x1="554.0" x2="554.0" y1="98" y2="502" stroke="#e5e7eb" stroke-width="1"/>
<text x="554.0" y="92" text-anchor="middle" font-family="Segoe UI, Arial, sans-serif" font-size="10" fill="#6b7280">50</text>
<line x1="706.0" x2="706.0" y1="98" y2="502" stroke="#e5e7eb" stroke-width="1"/>
<text x="706.0" y="92" text-anchor="middle" font-family="Segoe UI, Arial, sans-serif" font-size="10" fill="#6b7280">75</text>
<line x1="858.0" x2="858.0" y1="98" y2="502" stroke="#e5e7eb" stroke-width="1"/>
<text x="858.0" y="92" text-anchor="middle" font-family="Segoe UI, Arial, sans-serif" font-size="10" fill="#6b7280">100</text>
<line x1="1010.0" x2="1010.0" y1="98" y2="502" stroke="#e5e7eb" stroke-width="1"/>
<text x="1010.0" y="92" text-anchor="middle" font-family="Segoe UI, Arial, sans-serif" font-size="10" fill="#6b7280">125</text>
<rect x="12" y="106" width="1026" height="28" fill="#f9fafb"/>
<text x="24" y="124.0" font-family="Segoe UI, Arial, sans-serif" font-size="12" fill="#111827">Heavy Minigun</text>
<rect x="250" y="112.0" width="378.1" height="8" rx="2" fill="#2563eb"/>
<rect x="250" y="122.0" width="729.6" height="8" rx="2" fill="#f59e0b"/>
<text x="984.6" y="124.0" font-family="Segoe UI, Arial, sans-serif" font-size="10" fill="#374151">62.18 / 120.0</text>
<text x="24" y="152.0" font-family="Segoe UI, Arial, sans-serif" font-size="12" fill="#111827">Pyro Flamethrower</text>
<rect x="250" y="140.0" width="302.5" height="8" rx="2" fill="#2563eb"/>
<rect x="250" y="150.0" width="583.7" height="8" rx="2" fill="#f59e0b"/>
<text x="838.7" y="152.0" font-family="Segoe UI, Arial, sans-serif" font-size="10" fill="#374151">49.76 / 96.0</text>
<rect x="12" y="162" width="1026" height="28" fill="#f9fafb"/>
<text x="24" y="180.0" font-family="Segoe UI, Arial, sans-serif" font-size="12" fill="#111827">Scout Nailgun</text>
<rect x="250" y="168.0" width="276.8" height="8" rx="2" fill="#2563eb"/>
<rect x="250" y="178.0" width="364.8" height="8" rx="2" fill="#f59e0b"/>
<text x="619.8" y="180.0" font-family="Segoe UI, Arial, sans-serif" font-size="10" fill="#374151">45.53 / 60.0</text>
<text x="24" y="208.0" font-family="Segoe UI, Arial, sans-serif" font-size="12" fill="#111827">Scout Scattergun</text>
<rect x="250" y="196.0" width="248.1" height="8" rx="2" fill="#2563eb"/>
<rect x="250" y="206.0" width="437.8" height="8" rx="2" fill="#f59e0b"/>
<text x="692.8" y="208.0" font-family="Segoe UI, Arial, sans-serif" font-size="10" fill="#374151">40.8 / 72.0</text>
<rect x="12" y="218" width="1026" height="28" fill="#f9fafb"/>
<text x="24" y="236.0" font-family="Segoe UI, Arial, sans-serif" font-size="12" fill="#111827">Medic Needlegun</text>
<rect x="250" y="224.0" width="243.2" height="8" rx="2" fill="#2563eb"/>
<rect x="250" y="234.0" width="243.2" height="8" rx="2" fill="#f59e0b"/>
<text x="498.2" y="236.0" font-family="Segoe UI, Arial, sans-serif" font-size="10" fill="#374151">40.0 / 40.0</text>
<text x="24" y="264.0" font-family="Segoe UI, Arial, sans-serif" font-size="12" fill="#111827">Demoman Mine Launcher</text>
<rect x="250" y="252.0" width="200.6" height="8" rx="2" fill="#2563eb"/>
<rect x="250" y="262.0" width="315.7" height="8" rx="2" fill="#f59e0b"/>
<text x="570.7" y="264.0" font-family="Segoe UI, Arial, sans-serif" font-size="10" fill="#374151">33.0 / 51.92</text>
<rect x="12" y="274" width="1026" height="28" fill="#f9fafb"/>
<text x="24" y="292.0" font-family="Segoe UI, Arial, sans-serif" font-size="12" fill="#111827">Spy Revolver</text>
<rect x="250" y="280.0" width="199.5" height="8" rx="2" fill="#2563eb"/>
<rect x="250" y="290.0" width="283.8" height="8" rx="2" fill="#f59e0b"/>
<text x="538.8" y="292.0" font-family="Segoe UI, Arial, sans-serif" font-size="10" fill="#374151">32.82 / 46.67</text>
<text x="24" y="320.0" font-family="Segoe UI, Arial, sans-serif" font-size="12" fill="#111827">Soldier Rocket Launcher</text>
<rect x="250" y="308.0" width="193.2" height="8" rx="2" fill="#2563eb"/>
<rect x="250" y="318.0" width="334.4" height="8" rx="2" fill="#f59e0b"/>
<text x="589.4" y="320.0" font-family="Segoe UI, Arial, sans-serif" font-size="10" fill="#374151">31.78 / 55.0</text>
<rect x="12" y="330" width="1026" height="28" fill="#f9fafb"/>
<text x="24" y="348.0" font-family="Segoe UI, Arial, sans-serif" font-size="12" fill="#111827">Engineer Shotgun</text>
<rect x="250" y="336.0" width="166.5" height="8" rx="2" fill="#2563eb"/>
<rect x="250" y="346.0" width="291.8" height="8" rx="2" fill="#f59e0b"/>
<text x="546.8" y="348.0" font-family="Segoe UI, Arial, sans-serif" font-size="10" fill="#374151">27.38 / 48.0</text>
<text x="24" y="376.0" font-family="Segoe UI, Arial, sans-serif" font-size="12" fill="#111827">Soldier 12 Gauge</text>
<rect x="250" y="364.0" width="163.2" height="8" rx="2" fill="#2563eb"/>
<rect x="250" y="374.0" width="291.8" height="8" rx="2" fill="#f59e0b"/>
<text x="546.8" y="376.0" font-family="Segoe UI, Arial, sans-serif" font-size="10" fill="#374151">26.84 / 48.0</text>
<rect x="12" y="386" width="1026" height="28" fill="#f9fafb"/>
<text x="24" y="404.0" font-family="Segoe UI, Arial, sans-serif" font-size="12" fill="#111827">Sniper Rifle</text>
<rect x="250" y="392.0" width="159.6" height="8" rx="2" fill="#2563eb"/>
<rect x="250" y="402.0" width="159.6" height="8" rx="2" fill="#f59e0b"/>
<text x="414.6" y="404.0" font-family="Segoe UI, Arial, sans-serif" font-size="10" fill="#374151">26.25 / 26.25</text>
<text x="24" y="432.0" font-family="Segoe UI, Arial, sans-serif" font-size="12" fill="#111827">Civilian/Employer Umbrella</text>
<rect x="250" y="420.0" width="133.3" height="8" rx="2" fill="#2563eb"/>
<rect x="250" y="430.0" width="189.1" height="8" rx="2" fill="#f59e0b"/>
<text x="444.1" y="432.0" font-family="Segoe UI, Arial, sans-serif" font-size="10" fill="#374151">21.93 / 31.11</text>
<rect x="12" y="442" width="1026" height="28" fill="#f9fafb"/>
<text x="24" y="460.0" font-family="Segoe UI, Arial, sans-serif" font-size="12" fill="#111827">Demoman Grenade Launcher</text>
<rect x="250" y="448.0" width="112.3" height="8" rx="2" fill="#2563eb"/>
<rect x="250" y="458.0" width="245.5" height="8" rx="2" fill="#f59e0b"/>
<text x="500.5" y="460.0" font-family="Segoe UI, Arial, sans-serif" font-size="10" fill="#374151">18.47 / 40.38</text>
<text x="24" y="488.0" font-family="Segoe UI, Arial, sans-serif" font-size="12" fill="#111827">Medic Kritz Needle</text>
<rect x="250" y="476.0" width="4.4" height="8" rx="2" fill="#2563eb"/>
<rect x="250" y="486.0" width="223.0" height="8" rx="2" fill="#f59e0b"/>
<text x="478.0" y="488.0" font-family="Segoe UI, Arial, sans-serif" font-size="10" fill="#374151">0.73 / 36.67</text>
<text x="24" y="522" font-family="Segoe UI, Arial, sans-serif" font-size="11" fill="#4b5563">Values shown as Sustained / Burst DPS. Rockets direct = direct + max splash; grenades direct excludes splash.</text>
<text x="24" y="538" font-family="Segoe UI, Arial, sans-serif" font-size="11" fill="#4b5563">No crits, falloff, experimental perks, airshot bonuses, sentries, alternates, unlocks, or reload-cancel tricks.</text>
</svg>